<svg xmlns="http://www.w3.org/2000/svg" width="123.333" height="34.94" viewBox="0 0 123.333 34.94"><defs><style>.a{fill:#27231f;}.b{fill:#e8335d;}</style></defs><g transform="translate(0 0.002)"><g transform="translate(0 -0.002)"><g transform="translate(0)"><path class="a" d="M441.941,40.91a9.3,9.3,0,0,0-9.3-9.3h0a9.3,9.3,0,0,0-9.3,9.3v0a9.3,9.3,0,0,0,9.3,9.3h0a9.32,9.32,0,0,0,6.97-3.144v2.067a1.174,1.174,0,0,0,1.165,1.165h0a1.174,1.174,0,0,0,1.165-1.165V40.976h0Zm-9.3,6.97h0a6.972,6.972,0,0,1-6.97-6.97h0a6.972,6.972,0,0,1,6.97-6.97h0a6.972,6.972,0,0,1,6.97,6.97h0A6.972,6.972,0,0,1,432.64,47.88Z" transform="translate(-330.261 -24.66)"/><path class="b" d="M83.44,6.994h0A9.211,9.211,0,0,0,78.8,8.248V2.333A2.333,2.333,0,0,0,76.471,0h0A2.333,2.333,0,0,0,74.14,2.331V16.292h0a9.3,9.3,0,0,0,9.3,9.3h0a9.3,9.3,0,0,0,9.3-9.3v0A9.318,9.318,0,0,0,83.44,6.994Zm4.661,9.3a4.663,4.663,0,0,1-4.661,4.661h0a4.663,4.663,0,0,1-4.661-4.661h0a4.663,4.663,0,0,1,4.661-4.661h0A4.663,4.663,0,0,1,88.1,16.294Z" transform="translate(-57.839 0)"/><g transform="translate(79.117 2.333)"><path class="a" d="M361.105,31.81a1.174,1.174,0,0,0-1.165,1.165V49.267a1.165,1.165,0,0,0,2.331,0V32.975a1.159,1.159,0,0,0-1.165-1.165Z" transform="translate(-359.918 -27.149)"/><circle class="a" cx="1.165" cy="1.165" r="1.165"/></g><g transform="translate(53.503 2.333)"><path class="a" d="M244.705,31.81a1.174,1.174,0,0,0-1.165,1.165V49.267a1.165,1.165,0,0,0,2.331,0V32.975a1.159,1.159,0,0,0-1.165-1.165Z" transform="translate(-243.496 -27.149)"/><circle class="a" cx="1.165" cy="1.165" r="1.165"/></g><path class="a" d="M283.241,40.91a9.3,9.3,0,0,0-9.3-9.3h0a9.3,9.3,0,0,0-9.3,9.3v0a9.3,9.3,0,0,0,9.3,9.3h0a9.32,9.32,0,0,0,6.97-3.144v3.21h0v.066a6.972,6.972,0,0,1-6.97,6.97h0a7.007,7.007,0,0,1-6.9-6.024,1.157,1.157,0,1,0-2.287.352,9.311,9.311,0,0,0,9.212,7.959h0a9.307,9.307,0,0,0,9.3-9.1v-9.52h0Zm-9.322,7.014h0a6.972,6.972,0,0,1-6.97-6.97h0a6.972,6.972,0,0,1,6.97-6.97h0a6.972,6.972,0,0,1,6.97,6.97v.022a6.939,6.939,0,0,1-6.97,6.948Z" transform="translate(-206.454 -24.66)"/><path class="b" d="M15.113,20.932H9.265l5.848-4.4V2.046A9.333,9.333,0,0,0,7.836.111h0A9.3,9.3,0,0,0,.119,10.772h0a10.321,10.321,0,0,0,.418,1.671,2.3,2.3,0,0,0,3.628,1.011l.044-.022a2.357,2.357,0,0,0,.7-2.616,4.883,4.883,0,0,1-.2-.814h0A4.648,4.648,0,0,1,8.575,4.684h0A4.648,4.648,0,0,1,13.9,8.554h0a4.672,4.672,0,0,1-1.464,4.2c-.022.022-.022.022-.044.022L.932,21.416l-.022.022a.172.172,0,0,0-.088.088l-.088.088-.044.044a.583.583,0,0,0-.11.132h0a2.344,2.344,0,0,0-.066,2.88h0a2.3,2.3,0,0,0,2,.923H15.157a2.333,2.333,0,0,0,2.331-2.331h0a2.4,2.4,0,0,0-2.375-2.331Z" transform="translate(0 0.002)"/><path class="a" d="M166.841,15.95V1.175A1.174,1.174,0,0,0,165.675.01h0a1.174,1.174,0,0,0-1.165,1.165v8.971A9.278,9.278,0,0,0,157.54,7h0a9.3,9.3,0,0,0-9.3,9.3v0a9.3,9.3,0,0,0,9.3,9.3h0a9.3,9.3,0,0,0,9.3-9.3V15.95Zm-2.331.352a6.972,6.972,0,0,1-6.97,6.97h0a6.972,6.972,0,0,1-6.97-6.97h0a6.972,6.972,0,0,1,6.97-6.97h0a6.943,6.943,0,0,1,6.97,6.97Z" transform="translate(-115.647 -0.007)"/><path class="a" d="M389.173,23.372a6.884,6.884,0,0,1-3.958-1.979h0a7.036,7.036,0,0,1-2.045-4.881V9.41h3.474a1.165,1.165,0,0,0,0-2.331h-3.474v-5.8a1.165,1.165,0,0,0-2.331,0V16.6h0a9.329,9.329,0,0,0,2.726,6.442h0a9.313,9.313,0,0,0,5.277,2.638,1.159,1.159,0,0,0,1.319-1.143A1.146,1.146,0,0,0,389.173,23.372Z" transform="translate(-297.106 -0.085)"/><path class="a" d="M526.773,23.45a6.884,6.884,0,0,1-3.958-1.979h0a7.036,7.036,0,0,1-2.045-4.881V1.375a1.165,1.165,0,1,0-2.331,0V16.7h0a9.329,9.329,0,0,0,2.726,6.442h0a9.314,9.314,0,0,0,5.277,2.638,1.177,1.177,0,0,0,.33-2.331Z" transform="translate(-404.452 -0.163)"/></g></g></g></svg>