<svg xmlns="http://www.w3.org/2000/svg" width="122.889" height="21.373" viewBox="0 0 122.889 21.373"><defs><style>.a{fill:#7a7a7a;}</style></defs><path class="a" d="M0,0,8.952,19.062l2.4-4.963L4.723,0ZM102.185,21.373h3.022l2.633-2.754h-.158l14.9-15.865V0h-3.044l-2.6,2.754h.142l-14.9,15.865ZM116.371,0,103.733.016l-1.216,2.738h11.221ZM108.38,21.373h13.193l1.316-2.754H110.984ZM74.841,2.754h5.618L82.863.24l-.1-.24H74.841Zm8.807,0h.237l-.066-.179Zm.263.045V21.373h4.536V2.754h9.067L98.857,0h-12.6L83.818,2.575ZM83.087,0h-.321l.1.24ZM56.258,21.373H59.37l1.416-2.943V0H56.258Zm5.663,0h11.8l1.316-2.754h-11.8ZM30.064,17.487a3.375,3.375,0,0,0,1.782,3.283l2.778-2.912A1.443,1.443,0,0,1,34.6,17.6V3.791c0-.679.419-1.037,1.293-1.037h8.5L47.025,0h-12.1q-4.858,0-4.858,3.889Zm4.381,3.881H46.58c3.238,0,4.858-1.29,4.858-3.886V3.889A3.377,3.377,0,0,0,49.631.59l-2.754,2.9a1.656,1.656,0,0,1,.032.292v13.8c0,.679-.427,1.037-1.3,1.037H37.054Zm-24.048,0h4.821L25.275,0H20.536l-7.9,16.85-.029-.068L11.434,19.22Z"/></svg>